<svg width="1357" height="692" viewBox="0 0 1357 692" fill="none" xmlns="http://www.w3.org/2000/svg">
    <path d="M21.301 337.866H0V480.521H21.301V337.866Z" fill="#F74F05" />
    <path d="M53.8791 261.533H32.5781V480.521H53.8791V261.533Z" fill="#F74F05" />
    <path d="M86.457 211.479H65.156V371.027H86.457V211.479Z" fill="#F74F05" />
    <path d="M119.035 210.228H97.7341V282.806H119.035V210.228Z" fill="#F74F05" />
    <path d="M151.613 237.758H130.312V377.91H151.613V237.758Z" fill="#F74F05" />
    <path d="M184.191 337.866H162.89V377.91H184.191V337.866Z" fill="#F74F05" />
    <path d="M216.769 337.866H195.468V514.307H216.769V337.866Z" fill="#F74F05" />
    <path d="M249.347 514.307H228.046V692H249.347V514.307Z" fill="#F74F05" />
    <path d="M281.925 582.506H260.624V692H281.925V582.506Z" fill="#F74F05" />
    <path d="M314.503 452.991H293.202V582.506H314.503V452.991Z" fill="#F74F05" />
    <path d="M347.081 300.325H325.78V452.991H347.081V300.325Z" fill="#F74F05" />
    <path d="M379.659 246.517H358.358V300.325H379.659V246.517Z" fill="#F74F05" />
    <path d="M412.237 246.517H390.936V343.497H412.237V246.517Z" fill="#F74F05" />
    <path d="M444.815 163.928H423.514V343.497H444.815V163.928Z" fill="#F74F05" />
    <path d="M477.393 67.5732H456.092V197.714H477.393V67.5732Z" fill="#F74F05" />
    <path d="M509.971 67.5732H488.67V151.414H509.971V67.5732Z" fill="#F74F05" />
    <path d="M542.549 151.414H521.248V321.599H542.549V151.414Z" fill="#F74F05" />
    <path d="M575.127 321.599H553.826V349.128H575.127V321.599Z" fill="#F74F05" />
    <path d="M607.705 267.79H586.404V349.128H607.705V267.79Z" fill="#F74F05" />
    <path d="M640.283 109.494H618.982V267.79H640.283V109.494Z" fill="#F74F05" />
    <path d="M672.862 0H651.561V109.494H672.862V0Z" fill="#F74F05" />
    <path d="M705.439 0H684.138V163.928H705.439V0Z" fill="#F74F05" />
    <path d="M738.018 163.928H716.717V227.747H738.018V163.928Z" fill="#F74F05" />
    <path d="M770.595 228.373H749.294V359.139H770.595V228.373Z" fill="#F74F05" />
    <path d="M803.174 261.533H781.873V359.014H803.174V261.533Z" fill="#F74F05" />
    <path d="M835.752 261.533H814.451V291.253H835.752V261.533Z" fill="#F74F05" />
    <path d="M868.33 291.253H847.029V436.723H868.33V291.253Z" fill="#F74F05" />
    <path d="M900.908 436.723H879.607V571.87H900.908V436.723Z" fill="#F74F05" />
    <path d="M933.486 495.537H912.185V572.37H933.486V495.537Z" fill="#F74F05" />
    <path d="M966.064 495.537H944.763V665.722H966.064V495.537Z" fill="#F74F05" />
    <path d="M998.642 546.843H977.341V665.722H998.642V546.843Z" fill="#F74F05" />
    <path d="M1031.22 357.888H1009.92V546.843H1031.22V357.888Z" fill="#F74F05" />
    <path d="M1063.8 357.888H1042.5V467.382H1063.8V357.888Z" fill="#F74F05" />
    <path d="M1096.38 397.931H1075.07V467.382H1096.38V397.931Z" fill="#F74F05" />
    <path d="M1128.95 276.393H1107.65V417.327H1128.95V276.393Z" fill="#F74F05" />
    <path d="M1161.53 276.644H1140.23V321.599H1161.53V276.644Z" fill="#F74F05" />
    <path d="M1194.11 322.412H1172.81V397.931H1194.11V322.412Z" fill="#F74F05" />
    <path d="M1226.69 397.931H1205.39V444.232H1226.69V397.931Z" fill="#F74F05" />
    <path d="M1259.27 321.599H1237.96V444.857H1259.27V321.599Z" fill="#F74F05" />
    <path d="M1291.84 282.807H1270.54V324.101H1291.84V282.807Z" fill="#F74F05" />
    <path d="M1324.42 282.807H1303.12V349.129H1324.42V282.807Z" fill="#F74F05" />
    <path d="M1357 349.128H1335.7V495.537H1357V349.128Z" fill="#F74F05" />
</svg>