<svg width="1292" height="524" viewBox="0 0 1292 524" fill="none" xmlns="http://www.w3.org/2000/svg">
<path d="M456.092 0H477.393V67.4141H456.092V0Z" fill="#004FF7"/>
<path d="M423.514 0H444.815V113.714H423.514V0Z" fill="#004FF7"/>
<path d="M216.769 524H195.468V430.307H216.769V524Z" fill="#004FF7"/>
<path d="M249.347 524H228.046V498.506H249.347V524Z" fill="#004FF7"/>
<path d="M933.486 524H912.185V411.537H933.486V524Z" fill="#004FF7"/>
<path d="M966.064 524H944.763V462.843H966.064V524Z" fill="#004FF7"/>
<path d="M651.56 0H672.861V79.9277H651.56V0Z" fill="#004FF7"/>
<path d="M640.283 0V25.4937H618.982V0H640.283Z" fill="#004FF7"/>
<path d="M390.936 79.9277H412.237V259.497H390.936V79.9277Z" fill="#004FF7"/>
<path d="M65.156 126.228H86.457V198.806H65.156V126.228Z" fill="#004FF7"/>
<path d="M53.8789 127.479H32.5779V287.027H53.8789V127.479Z" fill="#004FF7"/>
<path d="M0 177.533H21.301V396.521H0V177.533Z" fill="#004FF7"/>
<path d="M119.035 153.758H97.7339V293.91H119.035V153.758Z" fill="#004FF7"/>
<path d="M130.312 253.866H151.613V293.91H130.312V253.866Z" fill="#004FF7"/>
<path d="M184.191 253.866H162.89V430.307H184.191V253.866Z" fill="#004FF7"/>
<path d="M260.624 368.991H281.925V498.506H260.624V368.991Z" fill="#004FF7"/>
<path d="M314.503 216.325H293.202V368.991H314.503V216.325Z" fill="#004FF7"/>
<path d="M325.78 162.517H347.081V216.325H325.78V162.517Z" fill="#004FF7"/>
<path d="M379.659 162.517H358.358V259.497H379.659V162.517Z" fill="#004FF7"/>
<path d="M509.971 67.4141H488.67V237.599H509.971V67.4141Z" fill="#004FF7"/>
<path d="M521.248 237.599H542.549V265.128H521.248V237.599Z" fill="#004FF7"/>
<path d="M575.127 183.79H553.826V265.128H575.127V183.79Z" fill="#004FF7"/>
<path d="M586.404 25.4937H607.705V183.79H586.404V25.4937Z" fill="#004FF7"/>
<path d="M705.439 79.9277H684.138V143.747H705.439V79.9277Z" fill="#004FF7"/>
<path d="M716.716 144.373H738.017V275.139H716.716V144.373Z" fill="#004FF7"/>
<path d="M770.595 177.533H749.294V275.014H770.595V177.533Z" fill="#004FF7"/>
<path d="M781.873 177.533H803.174V207.253H781.873V177.533Z" fill="#004FF7"/>
<path d="M835.752 207.253H814.45V352.723H835.752V207.253Z" fill="#004FF7"/>
<path d="M847.029 352.723H868.33V487.87H847.029V352.723Z" fill="#004FF7"/>
<path d="M900.907 411.537H879.606V488.37H900.907V411.537Z" fill="#004FF7"/>
<path d="M977.341 273.888H998.642V462.843H977.341V273.888Z" fill="#004FF7"/>
<path d="M1031.22 273.888H1009.92V383.382H1031.22V273.888Z" fill="#004FF7"/>
<path d="M1042.5 313.931H1063.8V383.382H1042.5V313.931Z" fill="#004FF7"/>
<path d="M1096.38 192.393H1075.07V333.327H1096.38V192.393Z" fill="#004FF7"/>
<path d="M1107.65 192.644H1128.95V237.599H1107.65V192.644Z" fill="#004FF7"/>
<path d="M1161.53 238.412H1140.23V313.931H1161.53V238.412Z" fill="#004FF7"/>
<path d="M1172.81 313.931H1194.11V360.232H1172.81V313.931Z" fill="#004FF7"/>
<path d="M1226.69 237.599H1205.39V360.857H1226.69V237.599Z" fill="#004FF7"/>
<path d="M1237.96 198.807H1259.27V240.101H1237.96V198.807Z" fill="#004FF7"/>
<path d="M1291.84 198.807H1270.54V265.129H1291.84V198.807Z" fill="#004FF7"/>
</svg>
