<svg width="1293" height="524" viewBox="0 0 1293 524" fill="none" xmlns="http://www.w3.org/2000/svg">
<path d="M456.67 0H477.971V67.4141H456.67V0Z" fill="#F74F05"/>
<path d="M424.092 0H445.393V113.714H424.092V0Z" fill="#F74F05"/>
<path d="M217.347 524H196.046V430.307H217.347V524Z" fill="#F74F05"/>
<path d="M249.925 524H228.624V498.506H249.925V524Z" fill="#F74F05"/>
<path d="M934.064 524H912.763V411.537H934.064V524Z" fill="#F74F05"/>
<path d="M966.642 524H945.341V462.843H966.642V524Z" fill="#F74F05"/>
<path d="M652.138 0H673.439V79.9277H652.138V0Z" fill="#F74F05"/>
<path d="M640.862 0V25.4937H619.561V0H640.862Z" fill="#F74F05"/>
<path d="M391.514 79.9277H412.815V259.497H391.514V79.9277Z" fill="#F74F05"/>
<path d="M65.7341 126.228H87.0351V198.806H65.7341V126.228Z" fill="#F74F05"/>
<path d="M54.457 127.479H33.156V287.027H54.457V127.479Z" fill="#F74F05"/>
<path d="M0.578125 177.533H21.8791V396.521H0.578125V177.533Z" fill="#F74F05"/>
<path d="M119.613 153.758H98.312V293.91H119.613V153.758Z" fill="#F74F05"/>
<path d="M130.89 253.866H152.191V293.91H130.89V253.866Z" fill="#F74F05"/>
<path d="M184.769 253.866H163.468V430.307H184.769V253.866Z" fill="#F74F05"/>
<path d="M261.202 368.991H282.503V498.506H261.202V368.991Z" fill="#F74F05"/>
<path d="M315.081 216.325H293.78V368.991H315.081V216.325Z" fill="#F74F05"/>
<path d="M326.358 162.517H347.659V216.325H326.358V162.517Z" fill="#F74F05"/>
<path d="M380.237 162.517H358.936V259.497H380.237V162.517Z" fill="#F74F05"/>
<path d="M510.549 67.4141H489.248V237.599H510.549V67.4141Z" fill="#F74F05"/>
<path d="M521.826 237.599H543.127V265.128H521.826V237.599Z" fill="#F74F05"/>
<path d="M575.705 183.79H554.404V265.128H575.705V183.79Z" fill="#F74F05"/>
<path d="M586.982 25.4937H608.283V183.79H586.982V25.4937Z" fill="#F74F05"/>
<path d="M706.018 79.9277H684.717V143.747H706.018V79.9277Z" fill="#F74F05"/>
<path d="M717.294 144.373H738.595V275.139H717.294V144.373Z" fill="#F74F05"/>
<path d="M771.174 177.533H749.873V275.014H771.174V177.533Z" fill="#F74F05"/>
<path d="M782.451 177.533H803.752V207.253H782.451V177.533Z" fill="#F74F05"/>
<path d="M836.33 207.253H815.029V352.723H836.33V207.253Z" fill="#F74F05"/>
<path d="M847.607 352.723H868.908V487.87H847.607V352.723Z" fill="#F74F05"/>
<path d="M901.486 411.537H880.185V488.37H901.486V411.537Z" fill="#F74F05"/>
<path d="M977.919 273.888H999.22V462.843H977.919V273.888Z" fill="#F74F05"/>
<path d="M1031.8 273.888H1010.5V383.382H1031.8V273.888Z" fill="#F74F05"/>
<path d="M1043.07 313.931H1064.38V383.382H1043.07V313.931Z" fill="#F74F05"/>
<path d="M1096.95 192.393H1075.65V333.327H1096.95V192.393Z" fill="#F74F05"/>
<path d="M1108.23 192.644H1129.53V237.599H1108.23V192.644Z" fill="#F74F05"/>
<path d="M1162.11 238.412H1140.81V313.931H1162.11V238.412Z" fill="#F74F05"/>
<path d="M1173.39 313.931H1194.69V360.232H1173.39V313.931Z" fill="#F74F05"/>
<path d="M1227.27 237.599H1205.96V360.857H1227.27V237.599Z" fill="#F74F05"/>
<path d="M1238.54 198.807H1259.84V240.101H1238.54V198.807Z" fill="#F74F05"/>
<path d="M1292.42 198.807H1271.12V265.129H1292.42V198.807Z" fill="#F74F05"/>
</svg>
