<svg width="50" height="50" viewBox="0 0 50 50" fill="none" xmlns="http://www.w3.org/2000/svg">
    <path d="M25.0001 0L26.0624 1.83957H25.5001V8.94466H24.5001V1.83957H23.9376L25.0001 0Z" fill="currentColor" />
    <path fill-rule="evenodd" clip-rule="evenodd"
        d="M25 11.603L36.6021 18.3015V31.6984L25 38.3968L13.3979 31.6984V18.3015L25 11.603ZM14.3979 31.121V19.4563L24.5 25.2887V36.9534L14.3979 31.121ZM25.5 36.9535L35.6021 31.121V19.4563L25.5 25.2887V36.9535ZM25 12.7577L35.1022 18.5902L25 24.4227L14.8979 18.5902L25 12.7577Z"
        fill="currentColor" />
    <path
        d="M41.7303 8.97674L36.7065 14.0006L35.9994 13.2935L41.0231 8.26968L40.6256 7.87223L42.6778 7.32227L42.128 9.37441L41.7303 8.97674Z"
        fill="currentColor" />
    <path d="M48.1603 25.4998H41.0554V24.4998H48.1603V23.9377L50 24.9999L48.1603 26.0624V25.4998Z"
        fill="currentColor" />
    <path
        d="M41.0232 41.7303L35.9994 36.7064L36.7065 35.9993L41.7304 41.0233L42.128 40.6257L42.6778 42.6775L40.6256 42.1279L41.0232 41.7303Z"
        fill="currentColor" />
    <path d="M24.5001 48.1602V41.0552H25.5001V48.1602H26.0624L25.0001 50.0001L23.9376 48.1602H24.5001Z"
        fill="currentColor" />
    <path
        d="M8.26965 41.0233L13.2935 35.9993L14.0006 36.7064L8.9768 41.7303L9.37441 42.1279L7.32227 42.6775L7.87206 40.6257L8.26965 41.0233Z"
        fill="currentColor" />
    <path d="M1.83976 24.4998H8.94464V25.4998H1.83976V26.0624L0 24.9999L1.83976 23.9377V24.4998Z" fill="currentColor" />
    <path
        d="M7.32227 7.32227L9.37441 7.87188L8.97678 8.26956L14.0006 13.2935L13.2935 14.0006L8.26971 8.97671L7.87206 9.37441L7.32227 7.32227Z"
        fill="currentColor" />
</svg>