<svg width="48" height="48" viewBox="0 0 48 48" fill="none" xmlns="http://www.w3.org/2000/svg">
    <path fill-rule="evenodd" clip-rule="evenodd"
        d="M24.5604 16.3606V20.6235C26.0951 20.8489 27.2978 22.0957 27.4556 23.6514H31.8513V24.6514H27.4111C27.1381 26.0639 25.9942 27.1659 24.5604 27.3764V32.1102H23.5604V27.3764C22.1266 27.1659 20.9827 26.0639 20.7097 24.6514H16.1016V23.6514H20.6652C20.823 22.0957 22.0257 20.8488 23.5604 20.6235V16.3606H24.5604ZM21.6476 24C21.6476 22.6674 22.7278 21.5872 24.0604 21.5872C25.393 21.5872 26.4732 22.6674 26.4732 24C26.4732 25.3325 25.393 26.4128 24.0604 26.4128C22.7278 26.4128 21.6476 25.3325 21.6476 24Z"
        fill="currentColor" />
    <path fill-rule="evenodd" clip-rule="evenodd"
        d="M13.5544 24C13.5544 18.1978 18.2581 13.4941 24.0603 13.4941C29.8625 13.4941 34.5662 18.1978 34.5662 24C34.5662 29.8022 29.8625 34.5059 24.0603 34.5059C18.2581 34.5059 13.5544 29.8022 13.5544 24ZM24.0603 14.4941C18.8104 14.4941 14.5544 18.7501 14.5544 24C14.5544 29.25 18.8104 33.5059 24.0603 33.5059C29.3103 33.5059 33.5662 29.25 33.5662 24C33.5662 18.7501 29.3103 14.4941 24.0603 14.4941Z"
        fill="currentColor" />
    <path fill-rule="evenodd" clip-rule="evenodd"
        d="M35.9155 33.4128C34.4169 33.4128 33.2021 34.6276 33.2021 36.1262C33.2021 37.6247 34.4169 38.8395 35.9155 38.8395C37.414 38.8395 38.6288 37.6247 38.6288 36.1262C38.6288 34.6276 37.414 33.4128 35.9155 33.4128ZM34.2021 36.1262C34.2021 35.1799 34.9692 34.4128 35.9155 34.4128C36.8617 34.4128 37.6288 35.1799 37.6288 36.1262C37.6288 37.0724 36.8617 37.8395 35.9155 37.8395C34.9692 37.8395 34.2021 37.0724 34.2021 36.1262Z"
        fill="currentColor" />
    <path fill-rule="evenodd" clip-rule="evenodd"
        d="M5.1936 5.22705H42.852V42.8854H5.1936V32.2324H3.44507V31.2324H5.1936V17.0786H3.44507V16.0786H5.1936V5.22705ZM6.1936 6.22705V41.8854H41.852V6.22705H6.1936Z"
        fill="currentColor" />
    <path fill-rule="evenodd" clip-rule="evenodd"
        d="M0.123535 0.123535H47.8764V47.8764H0.123535V0.123535ZM1.12354 1.12354V46.8764H46.8764V1.12354H1.12354Z"
        fill="currentColor" />
</svg>