<svg width="53" height="49" viewBox="0 0 53 49" fill="none" xmlns="http://www.w3.org/2000/svg">
<path fill-rule="evenodd" clip-rule="evenodd" d="M52.9357 7.62313L39.8742 0.074707L26.8127 7.62312V18.5486L20.3389 22.9011L13.1257 18.7324L0.064209 26.2808V41.3768L13.1257 48.9252L26.1872 41.3768V26.2808L21.3028 23.4581L29.9444 17.6482C31.0421 16.9101 32.4868 16.95 33.542 17.7479C35.2315 19.0254 35.1732 21.5849 33.4286 22.7843L29.1606 25.6077L28.6915 24.8972L27.485 27.3158L30.1806 27.1526L29.7116 26.4422L31.3638 25.3492L39.8742 30.2675L52.9357 22.7191V7.62313ZM29.3864 16.8183L27.8127 17.8763V8.77881L39.3743 15.4604V28.8236L32.2957 24.7328L33.9839 23.616L33.9908 23.6114C36.3018 22.0267 36.3802 18.6404 34.1452 16.9503C32.7494 15.8949 30.8383 15.8421 29.3864 16.8183ZM40.3743 28.8236L51.9357 22.1421V8.77888L40.3743 15.4604V28.8236ZM39.8743 14.5944L28.3114 7.91201L39.8742 1.22969L51.4371 7.91205L39.8743 14.5944ZM1.06421 40.7998V27.4358L12.6257 34.1174V47.4813L1.06421 40.7998ZM13.6257 47.4813L25.1872 40.7998V27.4359L13.6257 34.1174V47.4813ZM13.1258 33.2514L1.5635 26.5694L13.1257 19.8874L24.688 26.5694L13.1258 33.2514Z" fill="currentColor"/>
</svg>
