<svg width="32" height="39" viewBox="0 0 32 39" fill="none" xmlns="http://www.w3.org/2000/svg">
<path fill-rule="evenodd" clip-rule="evenodd" d="M21.9027 24.8831C20.7958 24.8831 19.9103 25.791 19.9103 26.8964C19.9103 28.0018 20.7958 28.9097 21.9027 28.9097C23.0096 28.9097 23.8951 28.0018 23.8951 26.8964C23.8951 25.791 23.0096 24.8831 21.9027 24.8831ZM20.9103 26.8964C20.9103 26.3302 21.3611 25.8831 21.9027 25.8831C22.4443 25.8831 22.8951 26.3302 22.8951 26.8964C22.8951 27.4626 22.4443 27.9097 21.9027 27.9097C21.3611 27.9097 20.9103 27.4626 20.9103 26.8964Z" fill="currentColor"/>
<path fill-rule="evenodd" clip-rule="evenodd" d="M16.6686 11.3307C15.4941 8.82936 12.9763 7.09521 10.0531 7.09521C6.00291 7.09521 2.73145 10.4226 2.73145 14.5125C2.73145 14.8832 2.75833 15.2479 2.8103 15.6045H2.7688C1.67899 15.6045 0.807373 16.4984 0.807373 17.5864V36.2064C0.807373 37.2944 1.67899 38.1884 2.7688 38.1884H29.2311C30.3209 38.1884 31.1926 37.2944 31.1926 36.2064V17.5864C31.1926 16.6172 30.5009 15.802 29.5795 15.6356C29.3408 11.7633 26.1665 8.68726 22.2723 8.68726C20.0211 8.68726 18.0105 9.71522 16.6686 11.3307ZM10.0531 8.09521C6.56827 8.09521 3.73145 10.9617 3.73145 14.5125C3.73145 14.8851 3.76267 15.2499 3.82253 15.6045H14.9671C15.0462 14.4015 15.4087 13.2761 15.988 12.2969C15.0979 9.84059 12.773 8.09521 10.0531 8.09521ZM28.575 15.6045C28.3236 12.2885 25.5919 9.68726 22.2723 9.68726C18.9527 9.68726 16.2211 12.2885 15.9696 15.6045H28.575ZM2.7688 16.6045C2.24436 16.6045 1.80737 17.0375 1.80737 17.5864V36.2064C1.80737 36.7553 2.24436 37.1884 2.7688 37.1884H29.2311C29.7556 37.1884 30.1926 36.7553 30.1926 36.2064V31.1082H21.6015C19.2986 31.1082 17.4412 29.2146 17.4412 26.8965C17.4412 24.5784 19.2986 22.6848 21.6015 22.6848H30.1926V17.5864C30.1926 17.0375 29.7556 16.6045 29.2311 16.6045H2.7688ZM21.6015 23.6848C19.864 23.6848 18.4412 25.1175 18.4412 26.8965C18.4412 28.6755 19.864 30.1082 21.6015 30.1082H30.1926V23.6848H21.6015Z" fill="currentColor"/>
</svg>
