<svg width="48" height="48" viewBox="0 0 48 48" fill="none" xmlns="http://www.w3.org/2000/svg">
    <path fill-rule="evenodd" clip-rule="evenodd"
        d="M19.6638 43.6464C19.6806 46.0268 21.6155 47.9513 24 47.9513C26.3843 47.9513 28.3192 46.0268 28.3361 43.6464C30.6782 43.1318 32.8672 42.2091 34.8248 40.957C35.6077 41.7295 36.6832 42.2062 37.8699 42.2062C40.2648 42.2062 42.2062 40.2648 42.2062 37.8699C42.2062 36.6832 41.7295 35.6077 40.957 34.8247C42.2091 32.8673 43.1318 30.6783 43.6464 28.3362C46.0269 28.3194 47.9515 26.3845 47.9515 24.0001C47.9515 21.6157 46.027 19.6808 43.6465 19.6639C43.1319 17.3218 42.2092 15.1327 40.957 13.1751C41.7295 12.3921 42.2062 11.3167 42.2062 10.13C42.2062 7.73511 40.2648 5.7937 37.8699 5.7937C36.6832 5.7937 35.6078 6.27044 34.8248 7.04285C32.8673 5.7907 30.6782 4.86802 28.3361 4.3534C28.3192 1.97302 26.3843 0.048584 24 0.048584C21.6156 0.048584 19.6807 1.97307 19.6638 4.35349C17.3217 4.86813 15.1327 5.7908 13.1752 7.04295C12.3922 6.27048 11.3168 5.7937 10.13 5.7937C7.73511 5.7937 5.7937 7.73511 5.7937 10.13C5.7937 11.3168 6.27049 12.3922 7.04296 13.1752C5.7908 15.1328 4.86813 17.3218 4.35349 19.6639C1.97307 19.6808 0.048584 21.6157 0.048584 24.0001C0.048584 26.3845 1.97312 28.3194 4.35357 28.3362C4.86821 30.6783 5.79086 32.8672 7.04297 34.8247C6.27049 35.6077 5.7937 36.6831 5.7937 37.8699C5.7937 40.2648 7.73511 42.2062 10.13 42.2062C11.3168 42.2062 12.3922 41.7294 13.1752 40.9569C15.1327 42.209 17.3217 43.1317 19.6638 43.6464ZM24 1.04858C22.1574 1.04858 20.6637 2.54228 20.6637 4.38484C20.6637 6.22741 22.1574 7.7211 24 7.7211C25.8425 7.7211 27.3362 6.22741 27.3362 4.38484C27.3362 2.54228 25.8425 1.04858 24 1.04858ZM19.7724 5.35381C20.1764 7.12404 21.6638 8.4818 23.5 8.69259V19.6923C22.6772 19.7868 21.9244 20.1116 21.3078 20.6005L13.5294 12.8222C14.1159 12.0826 14.4662 11.1472 14.4662 10.13C14.4662 9.28403 14.224 8.49467 13.8051 7.82747C15.6123 6.68579 17.6238 5.83883 19.7724 5.35381ZM26.6922 20.6006C26.0756 20.1116 25.3228 19.7868 24.5 19.6923V8.69258C26.3362 8.48175 27.8235 7.12397 28.2276 5.35372C30.3761 5.83873 32.3877 6.68567 34.1949 7.82736C33.776 8.49458 33.5337 9.28398 33.5337 10.13C33.5337 11.1472 33.884 12.0827 34.4706 12.8223L26.6922 20.6006ZM27.3993 21.3077C27.8884 21.9244 28.2132 22.6772 28.3077 23.5H39.3075C39.5183 21.6639 40.876 20.1765 42.6462 19.7725C42.1612 17.6239 41.3142 15.6123 40.1725 13.8051C39.5053 14.224 38.7159 14.4662 37.8699 14.4662C36.8527 14.4662 35.9173 14.1159 35.1777 13.5294L27.3993 21.3077ZM27.3994 26.6923C27.8885 26.0757 28.2132 25.3229 28.3077 24.5H39.3074C39.5182 26.3362 40.8759 27.8235 42.6461 28.2276C42.1611 30.3762 41.3142 32.3877 40.1725 34.1948C39.5053 33.7759 38.7159 33.5337 37.8699 33.5337C36.8527 33.5337 35.9172 33.884 35.1776 34.4705L27.3994 26.6923ZM26.6923 27.3994C26.0757 27.8885 25.3229 28.2133 24.5 28.3078V39.3073C26.3362 39.5182 27.8235 40.8759 28.2275 42.6461C30.3761 42.1611 32.3876 41.3142 34.1948 40.1725C33.7759 39.5053 33.5337 38.7159 33.5337 37.8699C33.5337 36.8527 33.884 35.9172 34.4705 35.1776L26.6923 27.3994ZM20.6006 21.3076L12.8223 13.5293C12.0827 14.1159 11.1473 14.4662 10.13 14.4662C9.28403 14.4662 8.49468 14.224 7.82749 13.8051C6.68578 15.6123 5.83883 17.6239 5.35381 19.7725C7.124 20.1765 8.48174 21.6639 8.69258 23.5H19.6922C19.7867 22.6771 20.1116 21.9243 20.6006 21.3076ZM5.35389 28.2276C7.12409 27.8236 8.48182 26.3362 8.6926 24.5H19.6922C19.7867 25.3229 20.1115 26.0757 20.6006 26.6924L12.8224 34.4706C12.0828 33.884 11.1473 33.5337 10.13 33.5337C9.28404 33.5337 8.49469 33.7759 7.8275 34.1948C6.68584 32.3876 5.83891 30.3762 5.35389 28.2276ZM21.3077 27.3995L13.5295 35.1777C14.116 35.9173 14.4662 36.8527 14.4662 37.8699C14.4662 38.7159 14.224 39.5052 13.8051 40.1724C15.6123 41.3141 17.6238 42.161 19.7724 42.646C20.1765 40.8758 21.6638 39.5181 23.5 39.3073V28.3078C22.6771 28.2134 21.9243 27.8886 21.3077 27.3995ZM24 20.6638C22.1574 20.6638 20.6637 22.1575 20.6637 24.0001C20.6637 25.8426 22.1574 27.3363 24 27.3363C25.8425 27.3363 27.3362 25.8426 27.3362 24.0001C27.3362 22.1575 25.8425 20.6638 24 20.6638ZM40.2789 24.0001C40.2789 22.1575 41.7726 20.6638 43.6152 20.6638C45.4578 20.6638 46.9515 22.1575 46.9515 24.0001C46.9515 25.8426 45.4578 27.3363 43.6152 27.3363C41.7726 27.3363 40.2789 25.8426 40.2789 24.0001ZM24 40.2788C22.1574 40.2788 20.6637 41.7725 20.6637 43.6151C20.6637 45.4576 22.1574 46.9513 24 46.9513C25.8425 46.9513 27.3362 45.4576 27.3362 43.6151C27.3362 41.7725 25.8425 40.2788 24 40.2788ZM1.04858 24.0001C1.04858 22.1575 2.54228 20.6638 4.38484 20.6638C6.22741 20.6638 7.7211 22.1575 7.7211 24.0001C7.7211 25.8426 6.22741 27.3363 4.38484 27.3363C2.54228 27.3363 1.04858 25.8426 1.04858 24.0001ZM37.8699 34.5337C36.0274 34.5337 34.5337 36.0274 34.5337 37.8699C34.5337 39.7125 36.0274 41.2062 37.8699 41.2062C39.7125 41.2062 41.2062 39.7125 41.2062 37.8699C41.2062 36.0274 39.7125 34.5337 37.8699 34.5337ZM6.7937 10.13C6.7937 8.2874 8.2874 6.7937 10.13 6.7937C11.9725 6.7937 13.4662 8.2874 13.4662 10.13C13.4662 11.9725 11.9725 13.4662 10.13 13.4662C8.2874 13.4662 6.7937 11.9725 6.7937 10.13ZM10.13 34.5337C8.2874 34.5337 6.7937 36.0274 6.7937 37.8699C6.7937 39.7125 8.2874 41.2062 10.13 41.2062C11.9725 41.2062 13.4662 39.7125 13.4662 37.8699C13.4662 36.0274 11.9725 34.5337 10.13 34.5337ZM34.5337 10.13C34.5337 8.2874 36.0274 6.7937 37.8699 6.7937C39.7125 6.7937 41.2062 8.2874 41.2062 10.13C41.2062 11.9725 39.7125 13.4662 37.8699 13.4662C36.0274 13.4662 34.5337 11.9725 34.5337 10.13Z"
        fill="currentColor" />
</svg>