<svg width="44" height="50" viewBox="0 0 44 50" fill="none" xmlns="http://www.w3.org/2000/svg">
<path fill-rule="evenodd" clip-rule="evenodd" d="M5.23112 18.5108C3.4342 18.5108 1.98694 19.95 1.98694 21.7139V44.8152C1.98694 46.5791 3.4342 48.0183 5.23112 48.0183H29.2948C31.0917 48.0183 32.539 46.5791 32.539 44.8152V21.7139C32.539 19.95 31.0917 18.5108 29.2948 18.5108H5.23112ZM0.986938 21.7139C0.986938 19.3874 2.89233 17.5108 5.23112 17.5108H29.2948C31.6336 17.5108 33.539 19.3874 33.539 21.7139V44.8152C33.539 47.1417 31.6336 49.0183 29.2948 49.0183H5.23112C2.89233 49.0183 0.986938 47.1417 0.986938 44.8152V21.7139Z" fill="currentColor"/>
<path fill-rule="evenodd" clip-rule="evenodd" d="M17.263 1.9149C11.9663 1.9149 7.67461 6.16692 7.67461 11.393V17.5448H26.8513V11.3931C26.8513 6.16691 22.5596 1.9149 17.263 1.9149ZM6.74262 11.393C6.74262 5.64254 11.4613 0.98291 17.263 0.98291C23.0646 0.98291 27.7833 5.64253 27.7833 11.3931V18.4768H6.74262V11.393Z" fill="currentColor"/>
<path fill-rule="evenodd" clip-rule="evenodd" d="M25.2579 23.8824H36.9065V24.8824H25.6689L22.1964 28.3169H1.48694V27.3169H21.7854L25.2579 23.8824Z" fill="currentColor"/>
<path fill-rule="evenodd" clip-rule="evenodd" d="M39.7061 22.1033C38.4269 22.1033 37.3993 23.1275 37.3993 24.3794C37.3993 25.6312 38.4269 26.6555 39.7061 26.6555C40.9854 26.6555 42.013 25.6312 42.013 24.3794C42.013 23.1275 40.9854 22.1033 39.7061 22.1033ZM36.3993 24.3794C36.3993 22.5649 37.885 21.1033 39.7061 21.1033C41.5272 21.1033 43.013 22.5649 43.013 24.3794C43.013 26.1939 41.5272 27.6555 39.7061 27.6555C37.885 27.6555 36.3993 26.1939 36.3993 24.3794Z" fill="currentColor"/>
<path fill-rule="evenodd" clip-rule="evenodd" d="M21.7854 39.2123H1.48694V38.2123H22.1964L25.6689 41.6467H36.9065V42.6467H25.2579L21.7854 39.2123Z" fill="currentColor"/>
<path fill-rule="evenodd" clip-rule="evenodd" d="M39.7061 39.8737C38.4269 39.8737 37.3993 40.8979 37.3993 42.1497C37.3993 43.4016 38.4269 44.4258 39.7061 44.4258C40.9854 44.4258 42.013 43.4016 42.013 42.1497C42.013 40.8979 40.9854 39.8737 39.7061 39.8737ZM36.3993 42.1497C36.3993 40.3352 37.885 38.8737 39.7061 38.8737C41.5272 38.8737 43.013 40.3352 43.013 42.1497C43.013 43.9643 41.5272 45.4258 39.7061 45.4258C37.885 45.4258 36.3993 43.9643 36.3993 42.1497Z" fill="currentColor"/>
<path fill-rule="evenodd" clip-rule="evenodd" d="M39.7061 30.9885C38.4269 30.9885 37.3993 32.0127 37.3993 33.2646C37.3993 34.5164 38.4269 35.5406 39.7061 35.5406C40.9854 35.5406 42.013 34.5164 42.013 33.2646C42.013 32.0127 40.9854 30.9885 39.7061 30.9885ZM36.3993 33.2646C36.3993 31.4501 37.885 29.9885 39.7061 29.9885C41.5272 29.9885 43.013 31.4501 43.013 33.2646C43.013 35.0791 41.5272 36.5406 39.7061 36.5406C37.885 36.5406 36.3993 35.0791 36.3993 33.2646Z" fill="currentColor"/>
<path fill-rule="evenodd" clip-rule="evenodd" d="M36.8993 33.7646H1.48694V32.7646H36.8993V33.7646Z" fill="currentColor"/>
</svg>
