<svg width="46" height="48" viewBox="0 0 46 48" fill="none" xmlns="http://www.w3.org/2000/svg">
    <path fill-rule="evenodd" clip-rule="evenodd"
        d="M4.07555 23.8345C4.07555 20.2583 6.97183 17.3584 10.5456 17.3584C14.1194 17.3584 17.0157 20.2583 17.0157 23.8345C17.0157 27.4107 14.1194 30.3107 10.5456 30.3107C6.97183 30.3107 4.07555 27.4107 4.07555 23.8345ZM10.5456 18.3584C7.52507 18.3584 5.07555 20.8097 5.07555 23.8345C5.07555 26.8594 7.52507 29.3107 10.5456 29.3107C13.5662 29.3107 16.0157 26.8594 16.0157 23.8345C16.0157 20.8097 13.5662 18.3584 10.5456 18.3584Z"
        fill="currentColor" />
    <path fill-rule="evenodd" clip-rule="evenodd"
        d="M25.247 0.00585938L34.0177 7.36174L27.3245 15.5595L22.6162 11.701L18.4388 16.8342C19.2237 17.7209 19.8717 18.756 20.336 19.9195C22.4955 25.3313 19.8636 31.4715 14.4564 33.6335C9.04927 35.7956 2.91562 33.1603 0.756093 27.7485C-1.40343 22.3367 1.22847 16.1965 6.63562 14.0345C9.06269 13.064 11.6361 13.0601 13.9308 13.84L25.247 0.00585938ZM22.474 10.2915L17.7361 16.1133C16.8966 15.331 15.9388 14.6958 14.9066 14.2265L25.3801 1.4226L32.6189 7.49376L30.1896 10.4692L25.8303 6.83838L25.1903 7.60677L29.5571 11.2438L27.1835 14.151L22.474 10.2915ZM1.68462 27.3772C-0.270475 22.4777 2.11255 16.92 7.00625 14.9633C11.8999 13.0065 17.4523 15.3913 19.4074 20.2908C21.3625 25.1903 18.9795 30.748 14.0858 32.7047C9.1921 34.6615 3.63971 32.2767 1.68462 27.3772Z"
        fill="currentColor" />
    <path fill-rule="evenodd" clip-rule="evenodd"
        d="M35.4543 17.6895C31.8805 17.6895 28.9842 20.5894 28.9842 24.1656C28.9842 27.7418 31.8805 30.6417 35.4543 30.6417C39.0281 30.6417 41.9244 27.7418 41.9244 24.1656C41.9244 20.5894 39.0281 17.6895 35.4543 17.6895ZM29.9842 24.1656C29.9842 21.1407 32.4338 18.6895 35.4543 18.6895C38.4749 18.6895 40.9244 21.1407 40.9244 24.1656C40.9244 27.1905 38.4749 29.6417 35.4543 29.6417C32.4338 29.6417 29.9842 27.1905 29.9842 24.1656Z"
        fill="currentColor" />
    <path fill-rule="evenodd" clip-rule="evenodd"
        d="M31.5442 14.3662C26.1369 16.5279 23.5046 22.6679 25.6638 28.0798C26.1281 29.2435 26.7761 30.2789 27.5612 31.1658L23.3837 36.299L18.6755 32.4406L11.9823 40.6383L20.753 47.9942L32.0692 34.1599C34.3637 34.9397 36.9369 34.9359 39.3637 33.9657C44.771 31.804 47.4033 25.664 45.2442 20.2521C43.085 14.8401 36.9515 12.2045 31.5442 14.3662ZM26.5923 27.7086C24.6376 22.809 27.0209 17.2514 31.9148 15.295C36.8086 13.3385 42.3608 15.7236 44.3156 20.6233C46.2704 25.5229 43.887 31.0805 38.9932 33.0369C34.0994 34.9933 28.5471 32.6082 26.5923 27.7086ZM23.526 37.7085L28.2639 31.8866C29.1035 32.669 30.0612 33.3042 31.0934 33.7734L20.6199 46.5774L13.3811 40.5063L15.8103 37.531L20.1697 41.1618L20.8097 40.3934L16.4428 36.7563L18.8165 33.849L23.526 37.7085Z"
        fill="currentColor" />
</svg>