<svg width="39" height="37" viewBox="0 0 39 37" fill="none" xmlns="http://www.w3.org/2000/svg">
<path fill-rule="evenodd" clip-rule="evenodd" d="M1 30.9463V35.851H38.4483V36.851H0V0H1V29.3225L6.68568 22.0485C6.40044 21.6684 6.23145 21.1961 6.23145 20.6844C6.23145 19.4281 7.24987 18.4097 8.50616 18.4097C9.76246 18.4097 10.7809 19.4281 10.7809 20.6844C10.7809 20.92 10.7451 21.1473 10.6785 21.3611L16.3163 25.009C16.7258 24.6116 17.2844 24.3669 17.9002 24.3669C18.1594 24.3669 18.4086 24.4103 18.6407 24.4902L26.5641 9.95755C26.0821 9.54044 25.7772 8.92427 25.7772 8.23688C25.7772 6.98059 26.7956 5.96216 28.0519 5.96216C29.3082 5.96216 30.3267 6.98059 30.3267 8.23688C30.3267 8.83094 30.0989 9.37181 29.726 9.77696L33.5695 15.4165C33.8239 15.3181 34.1004 15.2642 34.3896 15.2642C34.7893 15.2642 35.1649 15.3673 35.4913 15.5483L36.9179 13.9756L36.5494 13.6414L38.4483 13.032L38.0267 14.9812L37.6586 14.6474L36.2383 16.2132C36.5064 16.5865 36.6643 17.0442 36.6643 17.5389C36.6643 18.7952 35.6459 19.8136 34.3896 19.8136C33.1333 19.8136 32.1149 18.7952 32.1149 17.5389C32.1149 16.9324 32.3522 16.3814 32.739 15.9736L28.9041 10.3466C28.6409 10.453 28.3533 10.5116 28.0519 10.5116C27.8419 10.5116 27.6386 10.4831 27.4455 10.4299L19.4924 25.0171C19.9136 25.4299 20.1749 26.0053 20.1749 26.6417C20.1749 27.898 19.1565 28.9164 17.9002 28.9164C16.6439 28.9164 15.6255 27.898 15.6255 26.6417C15.6255 26.3617 15.6761 26.0935 15.7686 25.8458L10.1772 22.2278C9.76161 22.6775 9.16678 22.9591 8.50616 22.9591C8.12379 22.9591 7.76346 22.8648 7.44717 22.6981L1 30.9463ZM26.7772 8.23688C26.7772 7.53287 27.3479 6.96216 28.0519 6.96216C28.7559 6.96216 29.3267 7.53287 29.3267 8.23688C29.3267 8.94089 28.756 9.5116 28.0519 9.5116C27.3479 9.5116 26.7772 8.94089 26.7772 8.23688ZM7.23145 20.6844C7.23145 19.9804 7.80216 19.4097 8.50616 19.4097C9.21017 19.4097 9.78089 19.9804 9.78089 20.6844C9.78089 21.3884 9.21017 21.9591 8.50616 21.9591C7.80216 21.9591 7.23145 21.3884 7.23145 20.6844ZM17.9002 25.3669C17.1962 25.3669 16.6255 25.9377 16.6255 26.6417C16.6255 27.3457 17.1962 27.9164 17.9002 27.9164C18.6042 27.9164 19.1749 27.3457 19.1749 26.6417C19.1749 25.9377 18.6042 25.3669 17.9002 25.3669ZM34.3896 16.2642C33.6856 16.2642 33.1149 16.8349 33.1149 17.5389C33.1149 18.2429 33.6856 18.8136 34.3896 18.8136C35.0936 18.8136 35.6643 18.2429 35.6643 17.5389C35.6643 16.8349 35.0936 16.2642 34.3896 16.2642Z" fill="currentColor"/>
</svg>
