<svg width="45" height="38" viewBox="0 0 45 38" fill="none" xmlns="http://www.w3.org/2000/svg">
<path fill-rule="evenodd" clip-rule="evenodd" d="M25.5518 30.2658C27.4361 31.0922 30.0743 31.6158 33.0148 31.6158C35.9552 31.6158 38.5934 31.0922 40.4778 30.2658C41.4207 29.8523 42.1524 29.3729 42.6414 28.8658C43.1281 28.3612 43.353 27.8541 43.353 27.3629H44.353C44.353 28.1842 43.9714 28.9274 43.3612 29.5601C42.7533 30.1903 41.8978 30.735 40.8794 31.1816C38.841 32.0755 36.0601 32.6158 33.0148 32.6158C29.9695 32.6158 27.1885 32.0755 25.1502 31.1816C24.1317 30.735 23.2762 30.1903 22.6684 29.5601C22.0582 28.9274 21.6765 28.1842 21.6765 27.3629H22.6765C22.6765 27.8541 22.9014 28.3612 23.3881 28.8658C23.8772 29.3729 24.6089 29.8523 25.5518 30.2658Z" fill="currentColor"/>
<path fill-rule="evenodd" clip-rule="evenodd" d="M44.353 27.153V32.4104C44.353 33.2316 43.9714 33.9749 43.3612 34.6075C42.7533 35.2377 41.8978 35.7825 40.8794 36.2291C38.841 37.123 36.0601 37.6633 33.0148 37.6633C29.9694 37.6633 27.1885 37.123 25.1502 36.2291C24.1317 35.7825 23.2762 35.2377 22.6684 34.6075C22.0582 33.9749 21.6765 33.2316 21.6765 32.4104L21.6765 27.3629H22.6765L22.6765 32.4104C22.6765 32.9016 22.9014 33.4087 23.3881 33.9133C23.8772 34.4203 24.6089 34.8998 25.5518 35.3133C27.4361 36.1396 30.0743 36.6633 33.0148 36.6633C35.9552 36.6633 38.5934 36.1396 40.4778 35.3133C41.4206 34.8998 42.1524 34.4203 42.6414 33.9133C43.1281 33.4087 43.353 32.9016 43.353 32.4104V27.153H44.353Z" fill="currentColor"/>
<path fill-rule="evenodd" clip-rule="evenodd" d="M25.5518 25.2184C27.4361 26.0447 30.0743 26.5684 33.0148 26.5684C35.9552 26.5684 38.5934 26.0447 40.4778 25.2184C41.4207 24.8049 42.1524 24.3254 42.6414 23.8184C43.1281 23.3138 43.353 22.8067 43.353 22.3155H44.353C44.353 23.1367 43.9714 23.88 43.3612 24.5126C42.7533 25.1428 41.8978 25.6876 40.8794 26.1342C38.841 27.0281 36.0601 27.5684 33.0148 27.5684C29.9695 27.5684 27.1885 27.0281 25.1502 26.1342C24.1317 25.6876 23.2762 25.1428 22.6684 24.5126C22.0582 23.88 21.6765 23.1367 21.6765 22.3155H22.6765C22.6765 22.8067 22.9014 23.3138 23.3881 23.8184C23.8772 24.3254 24.6089 24.8049 25.5518 25.2184Z" fill="currentColor"/>
<path fill-rule="evenodd" clip-rule="evenodd" d="M44.353 22.1056L44.353 27.3629C44.353 28.1842 43.9714 28.9274 43.3612 29.5601C42.7533 30.1903 41.8978 30.735 40.8794 31.1816C38.841 32.0755 36.0601 32.6158 33.0148 32.6158C29.9695 32.6158 27.1885 32.0755 25.1502 31.1816C24.1317 30.735 23.2762 30.1903 22.6684 29.5601C22.0582 28.9274 21.6765 28.1842 21.6765 27.3629V22.3155H22.6765V27.3629C22.6765 27.8541 22.9014 28.3612 23.3881 28.8658C23.8772 29.3729 24.6089 29.8523 25.5518 30.2658C27.4361 31.0922 30.0743 31.6158 33.0148 31.6158C35.9552 31.6158 38.5934 31.0922 40.4778 30.2658C41.4207 29.8523 42.1524 29.3729 42.6414 28.8658C43.1281 28.3612 43.353 27.8541 43.353 27.3629L43.353 22.1056H44.353Z" fill="currentColor"/>
<path fill-rule="evenodd" clip-rule="evenodd" d="M23.3881 15.7651C22.9014 16.2697 22.6765 16.7768 22.6765 17.268C22.6765 17.7592 22.9014 18.2664 23.3881 18.771C23.8772 19.278 24.6089 19.7574 25.5518 20.1709C27.4361 20.9973 30.0743 21.5209 33.0148 21.5209C35.9552 21.5209 38.5934 20.9973 40.4778 20.1709C41.4206 19.7574 42.1524 19.278 42.6414 18.771C43.1281 18.2664 43.353 17.7592 43.353 17.268C43.353 16.7768 43.1281 16.2697 42.6414 15.7651C42.1524 15.258 41.4206 14.7786 40.4778 14.3651C38.5934 13.5387 35.9552 13.0151 33.0148 13.0151C30.0743 13.0151 27.4361 13.5387 25.5518 14.3651C24.6089 14.7786 23.8772 15.258 23.3881 15.7651ZM25.1502 13.4493C27.1885 12.5554 29.9694 12.0151 33.0148 12.0151C36.0601 12.0151 38.841 12.5554 40.8794 13.4493C41.8978 13.8959 42.7533 14.4406 43.3612 15.0708C43.9714 15.7035 44.353 16.4467 44.353 17.268C44.353 18.0893 43.9714 18.8325 43.3612 19.4652C42.7533 20.0954 41.8978 20.6401 40.8794 21.0867C38.841 21.9806 36.0601 22.5209 33.0148 22.5209C29.9694 22.5209 27.1885 21.9806 25.1502 21.0867C24.1317 20.6401 23.2762 20.0954 22.6683 19.4652C22.0582 18.8325 21.6765 18.0893 21.6765 17.268C21.6765 16.4467 22.0582 15.7035 22.6684 15.0708C23.2762 14.4406 24.1317 13.8959 25.1502 13.4493Z" fill="currentColor"/>
<path fill-rule="evenodd" clip-rule="evenodd" d="M44.353 17.0581L44.353 22.3155C44.353 23.1367 43.9714 23.88 43.3612 24.5126C42.7533 25.1428 41.8978 25.6876 40.8794 26.1342C38.841 27.0281 36.0601 27.5684 33.0148 27.5684C29.9695 27.5684 27.1885 27.0281 25.1502 26.1342C24.1317 25.6876 23.2762 25.1428 22.6684 24.5126C22.0582 23.88 21.6765 23.1367 21.6765 22.3155L21.6765 17.268H22.6765L22.6765 22.3155C22.6765 22.8067 22.9014 23.3138 23.3881 23.8184C23.8772 24.3254 24.6089 24.8049 25.5518 25.2184C27.4361 26.0447 30.0743 26.5684 33.0148 26.5684C35.9552 26.5684 38.5934 26.0447 40.4778 25.2184C41.4207 24.8049 42.1524 24.3254 42.6414 23.8184C43.1281 23.3138 43.353 22.8067 43.353 22.3155L43.353 17.0581H44.353Z" fill="currentColor"/>
<path fill-rule="evenodd" clip-rule="evenodd" d="M32.9027 1.77302H36.4997V2.77302H33.9027V18.0521H32.9027V1.77302Z" fill="currentColor"/>
<path fill-rule="evenodd" clip-rule="evenodd" d="M38.2695 1C37.5655 1 36.9947 1.57071 36.9947 2.27472C36.9947 2.97873 37.5655 3.54944 38.2695 3.54944C38.9735 3.54944 39.5442 2.97873 39.5442 2.27472C39.5442 1.57071 38.9735 1 38.2695 1ZM35.9947 2.27472C35.9947 1.01843 37.0132 0 38.2695 0C39.5258 0 40.5442 1.01843 40.5442 2.27472C40.5442 3.53101 39.5258 4.54944 38.2695 4.54944C37.0132 4.54944 35.9947 3.53101 35.9947 2.27472Z" fill="currentColor"/>
<path fill-rule="evenodd" clip-rule="evenodd" d="M20.1632 2.27472C20.1632 1.01843 21.1816 0 22.4379 0C23.6942 0 24.7126 1.01843 24.7126 2.27472C24.7126 3.35923 23.9537 4.26648 22.9379 4.49431V10.4151H11.8382V22.1147C14.6872 22.1704 17.2766 22.6993 19.2029 23.5441C20.2213 23.9907 21.0768 24.5354 21.6847 25.1656C22.2425 25.744 22.6093 26.4148 22.6682 27.1531H22.6765L22.6765 32.4104C22.6765 33.2316 22.2949 33.9749 21.6847 34.6076C21.0768 35.2378 20.2213 35.7825 19.2029 36.2292C17.1645 37.123 14.3836 37.6634 11.3383 37.6634C8.29293 37.6634 5.51198 37.123 3.47364 36.2292C2.4552 35.7825 1.59969 35.2378 0.99184 34.6076C0.381642 33.9749 0 33.2317 0 32.4104V27.363C0 26.5417 0.381642 25.7983 0.99184 25.1656C1.59969 24.5354 2.4552 23.9907 3.47364 23.5441C5.39986 22.6993 7.98925 22.1704 10.8382 22.1147V2.97095H8.77258C8.47849 3.88669 7.61984 4.54944 6.60639 4.54944C5.35009 4.54944 4.33167 3.53101 4.33167 2.27472C4.33167 1.01843 5.35009 0 6.60639 0C7.75968 0 8.71251 0.858277 8.861 1.97095H11.8382V9.41508H21.9379V4.49431C20.9222 4.26649 20.1632 3.35924 20.1632 2.27472ZM22.4379 1C21.7339 1 21.1632 1.57071 21.1632 2.27472C21.1632 2.97873 21.7339 3.54944 22.4379 3.54944C23.1419 3.54944 23.7126 2.97873 23.7126 2.27472C23.7126 1.57071 23.1419 1 22.4379 1ZM10.8382 27.6575V23.1149C8.09933 23.1706 5.65214 23.6806 3.87526 24.4599C2.93236 24.8734 2.20065 25.3528 1.71161 25.8598C1.22491 26.3645 1 26.8716 1 27.3628C1.00006 27.854 1.22497 28.3612 1.71161 28.8657C2.20065 29.3728 2.93236 29.8522 3.87526 30.2657C5.7596 31.0921 8.39777 31.6157 11.3383 31.6157C14.2787 31.6157 16.9169 31.0921 18.8012 30.2657C19.7441 29.8522 20.4759 29.3728 20.9649 28.8657C21.4516 28.3611 21.6765 27.8541 21.6765 27.3629C21.6765 26.8717 21.4516 26.3645 20.9649 25.8598C20.4759 25.3528 19.7441 24.8734 18.8012 24.4599C17.0244 23.6806 14.5771 23.1706 11.8382 23.1149V27.6575H10.8382ZM21.6765 29.5684L21.6765 32.4104C21.6765 32.9016 21.4516 33.4088 20.9649 33.9134C20.4759 34.4204 19.7441 34.8999 18.8012 35.3134C16.9169 36.1397 14.2787 36.6634 11.3383 36.6634C8.39777 36.6634 5.7596 36.1397 3.87526 35.3134C2.93236 34.8999 2.20065 34.4204 1.71161 33.9134C1.22491 33.4088 1 32.9016 1 32.4104V29.5684C1.60734 30.195 2.45975 30.7369 3.47364 31.1815C5.51198 32.0754 8.29293 32.6157 11.3383 32.6157C14.3836 32.6157 17.1645 32.0754 19.2029 31.1815C20.2167 30.7369 21.0692 30.195 21.6765 29.5684ZM5.33167 2.27472C5.33167 1.57071 5.90238 1 6.60639 1C7.31039 1 7.8811 1.57071 7.8811 2.27472C7.8811 2.97873 7.31039 3.54944 6.60639 3.54944C5.90238 3.54944 5.33167 2.97873 5.33167 2.27472Z" fill="currentColor"/>
</svg>
